# AST/ASF file generated using VICON BodyLanguage
# -----------------------------------------------
:version 1.10
:name VICON
:units
  mass 1.0
  length 0.45
  angle deg
:documentation
   .ast/.asf automatically generated from VICON data using
   VICON BodyBuilder and BodyLanguage model FoxedUp or BRILLIANT.MOD
:root
   order TX TY TZ RX RY RZ
   axis XYZ
   position 0 0 0  
   orientation 0 0 0 
:bonedata
  begin
     id 1 
     name lhipjoint
     direction 0.624716 -0.669793 0.401383 
     length 2.38238 
     axis 0 0 0  XYZ
  end
  begin
     id 2 
     name lfemur
     direction 0.34202 -0.939693 0  
     length 6.4574  
     axis 0 0 20  XYZ
    dof rx ry rz
    limits (-160.0 20.0)
           (-70.0 70.0)
           (-60.0 70.0)
  end
  begin
     id 3 
     name ltibia
     direction 0.34202 -0.939693 0   
     length 7.68739   
     axis 0 0 20   XYZ
    dof rx
    limits (-10.0 170.0)
  end
  begin
     id 4 
     name lfoot
     direction 0.0681309 -0.187188 0.979959   
     length 2.46615   
     axis -90 7.62852e-016 20   XYZ
    dof rx rz
    limits (-45.0 90.0)
           (-70.0 20.0)
  end
  begin
     id 5 
     name ltoes
     direction 1.53566e-011 -4.21819e-011 1   
     length 1.2376   
     axis -90 7.62852e-016 20   XYZ
    dof rx
    limits (-90.0 20.0)
  end
  begin
     id 6 
     name rhipjoint
     direction -0.644473 -0.655875 0.393043   
     length 2.43293  
     axis 0 0 0  XYZ 
  end
  begin
     id 7 
     name rfemur
     direction -0.34202 -0.939693 0   
     length 6.7025   
     axis 0 0 -20   XYZ
    dof rx ry rz
    limits (-160.0 20.0)
           (-70.0 70.0)
           (-70.0 60.0)
  end
  begin
     id 8 
     name rtibia
     direction -0.34202 -0.939693 0   
     length 7.80547   
     axis 0 0 -20   XYZ
    dof rx
    limits (-10.0 170.0)
 end
 begin
     id 9 
     name rfoot
     direction -0.0756734 -0.207911 0.975216   
     length 2.40315  
     axis -90 -7.62852e-016 -20   XYZ
    dof rx rz
    limits (-45.0 90.0)
           (-20.0 70.0)
  end
  begin
     id 10 
     name rtoes
     direction -1.5353e-011 -4.21879e-011 1   
     length 1.20477   
     axis -90 -7.62852e-016 -20   XYZ
    dof rx
    limits (-90.0 20.0)
  end
  begin
     id 11 
     name lowerback
     direction 0.0160353 0.987463 -0.157037   
     length 2.18572   
     axis 0 0 0   XYZ
    dof rx ry rz
    limits (-20.0 45.0)
           (-30.0 30.0)
           (-30.0 30.0)
  end
  begin
     id 12 
     name upperback
     direction -0.00499661 0.999756 0.0215076   
     length 2.18016   
     axis 0 0 0   XYZ
    dof rx ry rz
    limits (-20.0 45.0)
           (-30.0 30.0)
           (-30.0 30.0)
  end
  begin
     id 13 
     name thorax
     direction -0.00921346 0.995333 0.0960619   
     length 2.24923   
     axis 0 0 0   XYZ
    dof rx ry rz
    limits (-20.0 45.0)
           (-30.0 30.0)
           (-30.0 30.0)
  end
  begin
     id 14 
     name lowerneck
     direction 0.0274184 0.991181 0.12965   
     length 1.70911   
     axis 0 0 0   XYZ
    dof rx ry rz
    limits (-20.0 45.0)
           (-30.0 30.0)
           (-30.0 30.0)
  end
  begin
     id 15 
     name upperneck
     direction 0.0015627 0.999959 -0.00893559   
     length 1.69312   
     axis 0 0 0   XYZ
    dof rx ry rz
    limits (-20.0 45.0)
           (-30.0 30.0)
           (-30.0 30.0)
  end
  begin
     id 16
     name head
     direction -0.00230242 0.999856 -0.0168327  
     length 1.80241  
     axis 0 0 0   XYZ
    dof rx ry rz
    limits (-20.0 45.0)
           (-30.0 30.0)
           (-30.0 30.0)
  end
  begin
     id 17 
     name lclavicle
     direction 0.955523 0.290741 -0.0494489  
     length 3.84275  
     axis 0 0 0   XYZ
    dof ry rz
    limits (-20.0 10.0)
           (0.0 20.0)
  end
  begin
     id 18 
     name lhumerus
     direction 1 -4.48967e-011 -3.18382e-028   
     length 5.17714   
     axis 180 -30 -90   XYZ
    dof rx ry rz
    limits (-60.0 90.0)
           (-90.0 90.0)
           (-90.0 90.0)
  end
  begin
     id 19
     name lradius
     direction 1 -4.48968e-011 -2.22911e-027   
     length 3.43679   
     axis 180 -30 -90   XYZ
    dof rx
    limits (-10.0 170.0)
  end
  begin
     id 20
     name lwrist
     direction 1 -4.48951e-011 -6.32245e-027   
     length 1.7184   
     axis 3.57107e-015 90 90   XYZ
    dof ry
    limits (-180.0 0.0)
 end
  begin
     id 21 
     name lhand
     direction 1 -4.48924e-011 -1.26431e-026   
     length 0.573117   
     axis 8.06912e-015 90 90   XYZ
    dof rx rz
    limits (-90.0 90.0)
           (-45.0 45.0)
  end
  begin
     id 22 
     name lfingers
     direction 1 -4.49001e-011 -2.52965e-026   
     length 0.462062   
     axis 1.61381e-014 90 90   XYZ
    dof rx
    limits (0.0 90.0)
  end
  begin
     id 23
     name lthumb
     direction 0.707107 -6.35008e-011 0.707107   
     length 0.663431   
     axis -90 45 -1.62303e-014   XYZ
    dof rx rz
    limits (-45.0 45.0)
           (-45.0 45.0)
  end
  begin
     id 24 
     name rclavicle
     direction -0.963917 0.256881 -0.0698287   
     length 3.73057  
     axis 0 0 0   XYZ 
    dof ry rz
    limits (-10.0 20.0)
           (-20.0 0.0)
  end
  begin
     id 25 
     name rhumerus
     direction -1 -4.48962e-011 -2.73982e-027  
     length 5.23908   
     axis 180 30 90   XYZ
    dof rx ry rz
    limits (-90.0 60.0)
           (-90.0 90.0)
           (-90.0 90.0)
  end
  begin
     id 26 
     name rradius
     direction -1 -4.48968e-011 -4.33218e-027   
     length 3.46485   
     axis 180 30 90   XYZ
    dof rx
    limits (-10.0 170.0)
  end
  begin
     id 27 
     name rwrist
     direction -1 -4.48989e-011 -6.32372e-027   
     length 1.73243   
     axis 3.57107e-015 -90 -90   XYZ
    dof ry
    limits (-180.0 0.0)
  end
  begin
     id 28
     name rhand
     direction -1 -4.48948e-011 -1.26448e-026   
     length 0.608752   
     axis 8.06912e-015 -90 -90   XYZ
    dof rx rz
    limits (-90.0 90.0)
           (-45.0 45.0)
  end
  begin
     id 29
     name rfingers
     direction -1 -4.48962e-011 -2.52913e-026   
     length 0.490792   
     axis 1.61381e-014 -90 -90   XYZ
    dof rx
    limits (0.0 90.0)
  end
  begin
     id 30
     name rthumb
     direction -0.707107 -6.34878e-011 0.707107   
     length 0.704682   
     axis -90 -45 1.62303e-014   XYZ
    dof rx rz
    limits (-45.0 45.0)
           (-45.0 45.0)
  end
:hierarchy
  begin
    root lhipjoint rhipjoint lowerback
    lhipjoint lfemur
    lfemur ltibia
    ltibia lfoot
    lfoot ltoes
    rhipjoint rfemur
    rfemur rtibia
    rtibia rfoot
    rfoot rtoes
    lowerback upperback
    upperback thorax
    thorax lowerneck lclavicle rclavicle
    lowerneck upperneck
    upperneck head
    lclavicle lhumerus
    lhumerus lradius
    lradius lwrist
    lwrist lhand lthumb
    lhand lfingers
    rclavicle rhumerus
    rhumerus rradius
    rradius rwrist
    rwrist rhand rthumb
    rhand rfingers
  end

#!OML:ASF G:\JayActor3\Patient Classification 1\Patient 1\Session 6\male.ASF
:FULLY-SPECIFIED
:DEGREES
155
root 5.73584 14.8909 -17.258 10.0061 -40.086 -7.86364
lowerback 27.2897 -1.45363 -2.22276
upperback 4.90104 -2.68454 -0.0834974
thorax -9.53727 -1.26726 2.12492
lowerneck -9.25607 -3.49858 1.68361
upperneck 19.7117 -5.02887 -1.00632
head 7.50964 -2.41348 -1.07146
rclavicle -4.92986e-014 -3.18055e-014
rhumerus -36.607 12.9394 -90.6918
rradius 126.61
rwrist 12.2796
rhand 16.5219 -21.4196
rfingers 7.12502
rthumb 41.2822 -46.2456
lclavicle -4.92986e-014 -3.18055e-014
lhumerus -44.4168 -4.84924 91.7785
lradius 134.648
lwrist -0.571336
lhand 1.11436 43.3538
lfingers 7.12502
lthumb 26.6573 71.4968
rfemur -42.2485 -8.35759 27.8923
rtibia 66.2219
rfoot -27.0252 -8.63825
rtoes -4.42943
lfemur -39.1522 23.1948 -16.8936
ltibia 64.6013
lfoot -29.0474 6.51279
ltoes -9.14131
156
root 5.74027 14.893 -17.2526 10.0612 -40.2683 -7.90366
lowerback 27.2872 -1.4531 -2.28462
upperback 4.90053 -2.70457 -0.10593
thorax -9.53394 -1.2755 2.14216
lowerneck -9.23084 -3.54031 1.66198
upperneck 19.672 -5.08328 -0.996618
head 7.49216 -2.44063 -1.06825
rclavicle 2.94201e-014 -1.74931e-014
rhumerus -36.6198 12.9409 -90.7037
rradius 126.629
rwrist 12.2583
rhand 16.5238 -21.4519
rfingers 7.12502
rthumb 41.284 -46.2773
lclavicle 2.94201e-014 -1.74931e-014
lhumerus -44.4134 -4.85473 91.7807
lradius 134.643
lwrist -0.568968
lhand 1.13438 43.3712
lfingers 7.12502
lthumb 26.6765 71.5113
rfemur -42.2586 -8.30086 27.8905
rtibia 66.1807
rfoot -26.9576 -8.55438
rtoes -4.43646
lfemur -39.1281 23.2398 -16.8999
ltibia 64.5921
lfoot -29.0736 6.61882
ltoes -9.09617
157
root 5.74498 14.895 -17.2469 10.119 -40.445 -7.94908
lowerback 27.2889 -1.45763 -2.33616
upperback 4.89816 -2.72844 -0.130061
thorax -9.5352 -1.28572 2.15311
lowerneck -9.20575 -3.58346 1.6444
upperneck 19.6325 -5.14153 -0.981085
head 7.47483 -2.4688 -1.06415
rclavicle -4.37326e-014 1.74931e-014
rhumerus -36.6387 12.946 -90.7223
rradius 126.646
rwrist 12.2379
rhand 16.5022 -21.4952
rfingers 7.12502
rthumb 41.2637 -46.3272
lclavicle -4.37326e-014 1.74931e-014
lhumerus -44.4143 -4.85552 91.7789
lradius 134.641
lwrist -0.564021
lhand 1.14533 43.3816
lfingers 7.12502
lthumb 26.6869 71.52
rfemur -42.2685 -8.2527 27.8918
rtibia 66.1411
rfoot -26.8929 -8.46341
rtoes -4.43295
lfemur -39.1026 23.2823 -16.9027
ltibia 64.5813
lfoot -29.0989 6.72292
ltoes -9.05241
158
root 5.74961 14.897 -17.2412 10.1736 -40.6148 -7.99026
lowerback 27.2918 -1.46412 -2.38851
upperback 4.89542 -2.75523 -0.155647
thorax -9.53741 -1.29725 2.16393
lowerneck -9.17944 -3.63065 1.6247
upperneck 19.5898 -5.20692 -0.955108
head 7.45651 -2.49961 -1.05684
rclavicle 5.32743e-014 -4.29375e-014
rhumerus -36.6599 12.9459 -90.7426
rradius 126.66
rwrist 12.2157
rhand 16.4716 -21.5418
rfingers 7.12502
rthumb 41.235 -46.383
lclavicle 5.32743e-014 -4.29375e-014
lhumerus -44.419 -4.85804 91.7756
lradius 134.641
lwrist -0.560973
lhand 1.14556 43.381
lfingers 7.12502
lthumb 26.6872 71.5194
rfemur -42.2784 -8.21443 27.8906
rtibia 66.1039
rfoot -26.8306 -8.36839
rtoes -4.42497
lfemur -39.0773 23.3219 -16.9097
ltibia 64.5691
lfoot -29.1229 6.82698
ltoes -9.01688
159
root 5.75422 14.8989 -17.2355 10.2315 -40.7762 -8.03935
lowerback 27.2992 -1.47377 -2.43177
upperback 4.8927 -2.78343 -0.179524
thorax -9.54209 -1.30963 2.1721
lowerneck -9.15462 -3.68124 1.59635
upperneck 19.5438 -5.27821 -0.914919
head 7.43808 -2.53257 -1.04399
rclavicle -1.90833e-014 -4.77083e-015
rhumerus -36.6811 12.938 -90.7624
rradius 126.669
rwrist 12.1934
rhand 16.4486 -21.5792
rfingers 7.12502
rthumb 41.2134 -46.4274
lclavicle -1.90833e-014 -4.77083e-015
lhumerus -44.4257 -4.85797 91.7743
lradius 134.644
lwrist -0.559393
lhand 1.13671 43.3706
lfingers 7.12502
lthumb 26.6787 71.5104
rfemur -42.2859 -8.18432 27.8963
rtibia 66.0664
rfoot -26.7695 -8.26908
rtoes -4.40989
lfemur -39.0532 23.3661 -16.9102
ltibia 64.5583
lfoot -29.1441 6.93155
ltoes -9.01039
